# xmcd
#
# Track frame offsets:
#	150
#	33688
#	49894
#	71496
#	86235
#	114399
#	134356
#	161709
#	186118
#	207434
#	229501
#	252137
#	275799
#	296302
#
# Disc length: 4352
#
# Revision: 3
# Processed by: cddbd v1.5.1PL0 Copyright (c) Steve Scherf et al.
# Submitted via: audiograbber 1.83.01
# Normalized: r2:DSETVAR1
#
DISCID=d210fe0e
DTITLE=Various Artist - The Jazz Bar - Sweet and Lovely
DYEAR=1996
DGENRE=Jazz
TTITLE0=Steve Hobbs - Sweet and lovely
TTITLE1=Ella Fitzgerald - As time goes by
TTITLE2=Oscar Peterson and Count Basie - Lady Fitz
TTITLE3=Mose Allison - Baby let me hold your hand
TTITLE4=Joe Pass - I remember you
TTITLE5=Etty Jones - But not for me
TTITLE6=Richard "Groove" Holmes - Misty
TTITLE7=Freddy Cole - You're nice to be around
TTITLE8=Bill Evans - Isn't it romantic
TTITLE9=Mark Murphy - Nightmood
TTITLE10=Claudio Roditi - Una misma alma
TTITLE11=John Pisano - Ribbit
TTITLE12=Milt Jackson - Don't worry 'bout me
TTITLE13=Benny Carter meets Oscar Peterson - If I had you
EXTD=
EXTT0=
EXTT1=
EXTT2=
EXTT3=
EXTT4=
EXTT5=
EXTT6=
EXTT7=
EXTT8=
EXTT9=
EXTT10=
EXTT11=
EXTT12=
EXTT13=
PLAYORDER=
